<?xml version="1.0" encoding="UTF-8"?>
<!DOCTYPE svg PUBLIC "-//W3C//DTD SVG 1.1//EN" "http://www.w3.org/Graphics/SVG/1.1/DTD/svg11.dtd">
<!-- Creator: CorelDRAW 2019 (64-Bit) -->
<svg xmlns="http://www.w3.org/2000/svg" xml:space="preserve" width="209.903mm" height="297.039mm" version="1.1" style="shape-rendering:geometricPrecision; text-rendering:geometricPrecision; image-rendering:optimizeQuality; fill-rule:evenodd; clip-rule:evenodd"
viewBox="0 0 20990.26 29703.88"
 xmlns:xlink="http://www.w3.org/1999/xlink"
 xmlns:xodm="http://www.corel.com/coreldraw/odm/2003">
 <defs>
  <style type="text/css">
   <![CDATA[
    .fil0 {fill:#006EAD}
   ]]>
  </style>
 </defs>
 <g id="Foreground">
  <metadata id="CorelCorpID_0Corel-Layer"/>
  <g id="_1243081262464">
   <path class="fil0" d="M15776.23 13954.74l-536.52 0c-90.04,5.34 -115.2,27.65 -115.2,136.98l0 301.37 651.72 0 0 -438.35zm285.69 -241.33l0 0 0 1314.16 -285.69 0 0 -377.77 -651.72 0 0 377.77 -285.69 0 0 -1030.25c0,-182.04 73.76,-283.91 285.69,-283.91l937.41 0zm-1508.75 283.65l0 0 0 711.17c0,226.42 -127.21,319.06 -285.7,319.06l-901.1 0 0 -1314.14 901.1 0c243.33,0 285.7,154.74 285.7,283.91zm-289.13 79.08l0 0c0,-71.98 -43.87,-121.66 -120.7,-121.66l-491.28 0 0 821.12 491.28 -0.03c111.9,-5.69 120.7,-72.8 120.7,-126.02l0 -573.41zm-6721.13 -362.99l0 0 285.69 0 0 517.97 639.15 0 0 -517.97 285.68 0 0 1314.14 -285.68 0 0 -536.29 -639.15 0 0 536.29 -285.69 0 0 -1314.14zm1700.14 0l0 0 358.15 537.23 353.85 -537.23 346.9 0 -558.05 840.18 0 473.96 -285.71 0 0 -474.03 -561.91 -840.11 346.77 0zm2662.52 0l0 0 920.56 0c131.2,0 258.28,18.42 254.56,283.91l0 1030.23 -285.69 0 0 -935.83c0,-113.16 -13.57,-136.98 -102.37,-136.98l-501.36 0 0 1072.81 -285.7 0 0 -1314.14zm4727.73 0.26l0 0 0 1314.16 -285.7 0 0 -1314.16 285.7 0zm-6188.5 1313.88l0 0 920.52 0c183.02,0 258.28,-52.95 254.56,-316.82l0 -997.32 -285.68 0 0 938.15c0,112.49 -13.58,126.11 -102.36,126.11l-501.36 0 -0.02 -1064.26 -285.66 0 0 1314.14z"/>
   <path class="fil0" d="M5526.39 14565.18c25.21,130.17 -43.04,238.29 -99.73,343.26 -62.98,97.63 -166.92,181.6 -291.84,169.01 -280.31,-4.2 -554.29,-47.25 -808.35,-123.88 -11.54,-3.14 -23.09,-10.49 -29.39,-20.99 -5.25,-14.71 2.1,-28.35 12.59,-37.79 232.01,-187.9 508.1,-275.03 781.06,-366.36 101.82,-29.4 209.96,-60.89 324.39,-46.18 47.23,6.29 94.48,38.83 111.27,82.93zm956.36 -556.39l0 0c130.17,107.08 247.76,253.01 207.86,429.36 -65.08,260.35 -348.52,398.91 -574.23,487.08 -122.83,40.95 -246.7,82.94 -381.07,95.53 -8.41,-1.05 -22.05,1.05 -24.16,-11.56l3.16 -14.69c191.06,-215.19 335.93,-456.62 462.97,-701.22 58.77,-110.23 113.38,-223.61 163.76,-334.88 7.34,-8.39 14.69,-12.59 23.1,-15.75 47.23,4.21 80.82,40.95 118.61,66.13zm-1831.89 -277.12l0 0 -4.21 15.74c-276.09,313.89 -457.69,678.14 -629.86,1040.32 -33.59,31.49 -66.15,-10.51 -96.59,-24.15 -153.27,-100.77 -291.85,-263.48 -251.95,-456.65 64.04,-251.94 323.34,-386.31 539.6,-477.63 128.07,-48.3 261.4,-87.14 402.06,-109.19 14.71,0 33.61,-2.08 40.95,11.56zm1369.99 50.38l0 0c15.75,8.39 34.64,11.54 44.08,27.29 8.41,17.85 -8.39,29.4 -17.84,40.94 -217.3,170.05 -466.11,264.55 -720.15,347.48 -129.14,31.48 -259.31,88.17 -403.13,56.69 -33.6,-8.41 -64.04,-30.44 -82.94,-63 -35.69,-98.67 12.61,-201.54 54.59,-287.63 55.64,-108.12 154.32,-235.14 290.8,-237.25 293.93,-2.1 571.09,42 834.59,115.48zm363.22 8.39l0 0c222.57,121.79 474.53,335.93 448.28,621.46 -30.46,264.55 -277.16,449.3 -497.62,560.58 -643.52,307.58 -1547.39,317.02 -2211.92,48.28 -224.65,-93.43 -476.61,-254.03 -571.09,-495.48 -72.44,-198.4 15.74,-405.21 163.78,-542.72 309.68,-281.34 704.4,-377.91 1110.68,-433.55 440.92,-53.54 904.92,-6.3 1299.64,129.11 88.2,32.55 175.32,68.24 258.25,112.32z"/>
  </g>
 </g>
</svg>
